<svg width="264" height="72" viewBox="0 0 264 72" fill="none" xmlns="http://www.w3.org/2000/svg">
  <rect x="4" y="4" width="64" height="64" rx="20" fill="#F7F0E8"/>
  <path d="M19 46V26.8L36 14L53 26.8V46C53 51.2 49.9 54.4 44.6 54.4H27.4C22.1 54.4 19 51.2 19 46Z" stroke="#C96F4A" stroke-width="3" stroke-linejoin="round"/>
  <path d="M29.5 54V34.5H42.5V54" stroke="#C96F4A" stroke-width="3" stroke-linejoin="round"/>
  <path d="M26 25H46" stroke="#C96F4A" stroke-width="3" stroke-linecap="round"/>
  <path d="M93.38 54V18.06H106.82C110.58 18.06 113.66 18.82 116.06 20.34C118.46 21.86 119.66 24.14 119.66 27.18C119.66 29.18 119.12 30.9 118.04 32.34C116.96 33.74 115.44 34.82 113.48 35.58C116 36.18 117.96 37.3 119.36 38.94C120.76 40.58 121.46 42.62 121.46 45.06C121.46 48.46 120.18 51.06 117.62 52.86C115.1 54.62 111.54 55.04 106.94 54.12L93.38 54ZM99.98 33.06H106.88C109.16 33.06 110.92 32.6 112.16 31.68C113.44 30.76 114.08 29.42 114.08 27.66C114.08 25.66 113.42 24.22 112.1 23.34C110.82 22.46 108.94 22.02 106.46 22.02H99.98V33.06ZM99.98 37.86V50.1H107.96C110.2 50.1 111.94 49.62 113.18 48.66C114.46 47.66 115.1 46.2 115.1 44.28C115.1 40 112.5 37.86 107.3 37.86H99.98Z" fill="#181512"/>
  <path d="M149.72 54.48C146.04 54.48 142.8 53.72 140 52.2C137.2 50.68 135.02 48.58 133.46 45.9C131.94 43.18 131.18 40.08 131.18 36.6V35.52C131.18 31.96 131.92 28.82 133.4 26.1C134.88 23.34 136.94 21.2 139.58 19.68C142.22 18.12 145.22 17.34 148.58 17.34C152.1 17.34 155.08 18.08 157.52 19.56C159.96 21.04 161.82 23.14 163.1 25.86C164.42 28.58 165.08 31.8 165.08 35.52V38.22H137.72C137.8 40.42 138.3 42.38 139.22 44.1C140.14 45.82 141.42 47.16 143.06 48.12C144.7 49.08 146.6 49.56 148.76 49.56C151.12 49.56 153.18 49.1 154.94 48.18C156.74 47.22 158.2 45.9 159.32 44.22L163.04 47.16C161.84 49.4 160.02 51.2 157.58 52.56C155.18 53.84 152.56 54.48 149.72 54.48ZM148.64 22.2C146.84 22.2 145.22 22.62 143.78 23.46C142.38 24.26 141.22 25.44 140.3 27C139.42 28.52 138.86 30.34 138.62 32.46H158.78V31.98C158.66 30.1 158.24 28.42 157.52 26.94C156.84 25.46 155.82 24.3 154.46 23.46C153.14 22.62 151.2 22.2 148.64 22.2Z" fill="#181512"/>
  <path d="M176.69 54V18.06H182.69L183.05 22.56C184.21 20.92 185.69 19.66 187.49 18.78C189.33 17.86 191.37 17.4 193.61 17.4C197.77 17.4 200.91 18.5 203.03 20.7C205.15 22.86 206.21 26.24 206.21 30.84V54H199.91V30.78C199.87 27.98 199.23 25.92 197.99 24.6C196.75 23.24 194.83 22.56 192.23 22.56C190.11 22.56 188.25 23.12 186.65 24.24C185.05 25.36 183.83 26.84 182.99 28.68V54H176.69Z" fill="#181512"/>
  <path d="M235.08 54.48C231.76 54.48 228.84 53.68 226.32 52.08C223.8 50.48 221.84 48.28 220.44 45.48C219.08 42.64 218.4 39.4 218.4 35.76V34.98C218.4 31.34 219.1 28.1 220.5 25.26C221.9 22.42 223.88 20.2 226.44 18.6C229 16.96 231.94 16.14 235.26 16.14C238.58 16.14 241.48 16.96 243.96 18.6C246.48 20.2 248.44 22.42 249.84 25.26C251.24 28.1 251.94 31.34 251.94 34.98V35.76C251.94 39.4 251.24 42.64 249.84 45.48C248.48 48.28 246.54 50.48 244.02 52.08C241.5 53.68 238.52 54.48 235.08 54.48ZM235.26 49.32C237.42 49.32 239.28 48.76 240.84 47.64C242.4 46.52 243.58 45 244.38 43.08C245.18 41.16 245.58 38.96 245.58 36.48V34.98C245.58 32.54 245.16 30.38 244.32 28.5C243.52 26.58 242.34 25.06 240.78 23.94C239.22 22.78 237.38 22.2 235.26 22.2C233.18 22.2 231.36 22.78 229.8 23.94C228.28 25.06 227.1 26.58 226.26 28.5C225.46 30.38 225.06 32.54 225.06 34.98V36.48C225.06 38.96 225.46 41.16 226.26 43.08C227.06 45 228.22 46.52 229.74 47.64C231.3 48.76 233.14 49.32 235.26 49.32Z" fill="#181512"/>
</svg>