<svg width="264" height="72" viewBox="0 0 264 72" fill="none" xmlns="http://www.w3.org/2000/svg">
  <rect width="264" height="72" rx="24" fill="#F7F0E8"/>
  <rect x="8" y="8" width="56" height="56" rx="18" fill="#FFFFFF"/>
  <path d="M21 44V27.2L36 16L51 27.2V44C51 48.8 48.2 51.8 43.3 51.8H28.7C23.8 51.8 21 48.8 21 44Z" stroke="#C96F4A" stroke-width="2.8" stroke-linejoin="round"/>
  <path d="M30.5 51V34H41.5V51" stroke="#C96F4A" stroke-width="2.8" stroke-linejoin="round"/>
  <path d="M27.5 25.8H44.5" stroke="#C96F4A" stroke-width="2.8" stroke-linecap="round"/>
  <path d="M87 51V21H97.74L109.98 40.44L122.34 21H133.14V51H125.94V31.62L110.64 54.72H109.2L93.96 31.62V51H87Z" fill="#181512"/>
  <path d="M156.455 51.48C152.775 51.48 149.535 50.72 146.735 49.2C143.935 47.68 141.755 45.58 140.195 42.9C138.675 40.18 137.915 37.08 137.915 33.6V32.52C137.915 28.96 138.655 25.82 140.135 23.1C141.615 20.34 143.675 18.2 146.315 16.68C148.955 15.12 151.955 14.34 155.315 14.34C158.835 14.34 161.815 15.08 164.255 16.56C166.695 18.04 168.555 20.14 169.835 22.86C171.155 25.58 171.815 28.8 171.815 32.52V35.22H144.455C144.535 37.42 145.035 39.38 145.955 41.1C146.875 42.82 148.155 44.16 149.795 45.12C151.435 46.08 153.335 46.56 155.495 46.56C157.855 46.56 159.915 46.1 161.675 45.18C163.475 44.22 164.935 42.9 166.055 41.22L169.775 44.16C168.575 46.4 166.755 48.2 164.315 49.56C161.915 50.84 159.295 51.48 156.455 51.48Z" fill="#181512"/>
  <path d="M182.086 51V15.06H188.086L188.446 19.56C189.606 17.92 191.086 16.66 192.886 15.78C194.726 14.86 196.766 14.4 199.006 14.4C203.166 14.4 206.306 15.5 208.426 17.7C210.546 19.86 211.606 23.24 211.606 27.84V51H205.306V27.78C205.266 24.98 204.626 22.92 203.386 21.6C202.146 20.24 200.226 19.56 197.626 19.56C195.506 19.56 193.646 20.12 192.046 21.24C190.446 22.36 189.226 23.84 188.386 25.68V51H182.086Z" fill="#181512"/>
  <path d="M237.474 51.48C234.154 51.48 231.234 50.68 228.714 49.08C226.194 47.48 224.234 45.28 222.834 42.48C221.474 39.64 220.794 36.4 220.794 32.76V31.98C220.794 28.34 221.494 25.1 222.894 22.26C224.294 19.42 226.274 17.2 228.834 15.6C231.394 13.96 234.334 13.14 237.654 13.14C240.974 13.14 243.874 13.96 246.354 15.6C248.874 17.2 250.834 19.42 252.234 22.26C253.634 25.1 254.334 28.34 254.334 31.98V32.76C254.334 36.4 253.634 39.64 252.234 42.48C250.874 45.28 248.934 47.48 246.414 49.08C243.894 50.68 240.914 51.48 237.474 51.48Z" fill="#181512"/>
</svg>